<?xml version="1.0" standalone="no"?>
<!DOCTYPE svg PUBLIC "-//W3C//DTD SVG 20010904//EN"
 "http://www.w3.org/TR/2001/REC-SVG-20010904/DTD/svg10.dtd">
<svg version="1.0" xmlns="http://www.w3.org/2000/svg"
 width="850.000000pt" height="850.000000pt" viewBox="0 0 850.000000 850.000000"
 preserveAspectRatio="xMidYMid meet">
<metadata>
Created by potrace 1.14, written by Peter Selinger 2001-2017
</metadata>
<g transform="translate(0.000000,850.000000) scale(0.100000,-0.100000)"
fill="#000000" stroke="none">
<path d="M4087 6984 c-3 -3 -63 -8 -134 -11 -176 -6 -193 -7 -193 -13 0 -4
-10 -7 -22 -8 -48 -3 -84 -9 -99 -16 -9 -4 -20 -6 -25 -5 -20 3 -45 -1 -41 -8
3 -5 -11 -9 -31 -11 -62 -4 -72 -6 -72 -15 0 -5 -7 -7 -15 -3 -8 3 -15 2 -15
-3 0 -4 -6 -8 -12 -9 -23 -2 -43 -7 -55 -15 -7 -5 -18 -5 -25 -1 -7 5 -8 3 -3
-6 6 -9 4 -12 -6 -8 -8 3 -23 0 -33 -8 -11 -7 -23 -11 -27 -8 -5 3 -9 0 -9 -6
0 -6 -4 -9 -9 -5 -5 3 -12 1 -16 -5 -4 -6 -11 -8 -16 -5 -5 4 -9 2 -9 -4 0 -6
-7 -7 -17 -4 -10 4 -14 2 -10 -4 6 -9 -7 -16 -50 -25 -5 -1 -14 -8 -21 -15 -7
-7 -20 -13 -28 -13 -8 0 -14 -5 -14 -11 0 -5 -4 -7 -10 -4 -5 3 -10 2 -10 -4
0 -6 -11 -13 -24 -17 -14 -3 -32 -14 -42 -25 -9 -10 -21 -16 -25 -13 -5 3 -9
0 -9 -5 0 -6 -6 -11 -14 -11 -8 0 -16 -4 -18 -8 -1 -5 -30 -28 -63 -52 -33
-24 -102 -87 -152 -140 -105 -108 -106 -108 -152 -176 -19 -27 -37 -51 -41
-54 -3 -3 -14 -22 -25 -42 -11 -21 -23 -38 -27 -38 -5 0 -7 -3 -6 -7 3 -13
-24 -63 -34 -63 -4 0 -7 -3 -6 -7 4 -14 -26 -83 -35 -83 -4 0 -6 -4 -2 -9 3
-5 -1 -15 -8 -23 -8 -7 -12 -19 -9 -26 2 -6 0 -12 -5 -12 -6 0 -10 -7 -11 -15
-1 -8 -3 -22 -4 -30 -1 -8 -4 -15 -8 -15 -4 0 -7 -6 -7 -12 -1 -20 -7 -43 -14
-48 -4 -3 -8 -18 -10 -35 -2 -16 -10 -39 -19 -49 -8 -11 -10 -16 -2 -12 6 4
12 2 12 -3 0 -6 -4 -11 -9 -11 -5 0 -7 -10 -3 -22 3 -12 1 -19 -5 -15 -5 3 -9
-8 -9 -26 1 -18 -5 -38 -12 -46 -9 -9 -10 -17 -2 -25 5 -7 7 -15 4 -18 -5 -6
-16 -80 -16 -111 1 -11 -4 -15 -11 -10 -7 4 -6 0 2 -10 9 -11 10 -17 2 -17
-13 0 -10 -22 4 -32 6 -5 5 -8 -2 -8 -10 0 -12 -114 -13 -494 0 -274 4 -497 8
-500 5 -3 12 -2 16 1 10 10 106 10 106 0 0 -5 6 -5 12 -1 17 11 108 11 108 1
0 -5 6 -5 12 -1 17 11 108 11 108 1 0 -5 6 -5 12 -1 17 11 108 11 108 1 0 -5
6 -5 12 -1 17 11 108 11 108 1 0 -5 5 -5 12 -1 15 9 58 10 81 1 9 -3 17 -2 17
4 0 6 9 8 20 4 11 -3 28 -2 37 4 14 8 15 10 3 11 -13 0 -13 1 0 10 13 9 13 10
0 10 -12 0 -12 2 -2 8 9 7 10 15 3 35 -6 15 -7 27 -1 27 5 0 5 12 0 30 -5 17
-5 30 -1 30 4 0 4 25 1 55 -3 31 -4 58 -1 60 2 3 3 33 2 68 -2 34 -4 79 -4
100 -1 20 2 37 6 37 4 0 3 9 -3 19 -7 14 -7 20 2 23 7 3 8 10 4 17 -10 15 -10
176 -1 191 3 5 0 10 -7 10 -9 0 -9 3 2 10 8 5 11 10 5 10 -5 0 -10 18 -10 40
0 22 2 40 5 40 3 0 4 39 4 88 -1 55 3 90 10 94 7 5 8 8 0 8 -12 0 -12 29 0 49
5 8 4 16 -4 21 -7 4 -8 10 -3 13 6 4 9 24 9 47 -1 22 1 40 5 40 3 0 5 10 4 23
-1 12 3 25 9 29 8 5 7 8 -2 8 -9 0 -10 5 -4 18 5 9 8 27 7 40 -1 12 2 22 7 22
5 0 6 11 4 25 -3 15 0 25 7 25 7 0 6 4 -3 10 -8 5 -10 10 -3 10 6 0 10 8 9 17
-2 10 3 32 10 49 7 17 11 34 8 36 -2 3 0 18 7 34 6 16 12 38 14 49 4 22 12 57
15 65 1 3 2 8 1 13 0 4 3 7 8 7 5 0 8 8 7 17 -2 9 3 28 10 42 7 13 11 28 8 33
-3 4 0 8 5 8 6 0 10 3 9 8 -1 4 3 17 10 30 7 12 10 22 7 22 -3 0 4 17 15 37
11 21 20 43 20 50 0 6 5 13 10 15 6 2 12 13 13 26 0 12 5 22 9 22 5 0 13 10
19 23 16 35 34 65 52 85 10 10 17 22 17 26 0 7 6 16 45 60 14 16 25 33 25 38
0 5 5 6 10 3 6 -3 10 0 10 7 0 7 21 31 46 53 26 22 58 50 72 63 14 12 28 22
33 22 4 0 14 6 21 13 35 32 61 51 54 40 -4 -7 -4 -13 -1 -13 11 0 34 27 29 33
-3 3 6 4 20 3 14 -2 27 3 30 11 3 8 10 12 14 9 5 -3 23 4 41 15 18 11 29 14
25 7 -6 -10 -5 -10 7 -1 8 6 26 14 39 16 14 3 36 8 50 11 89 21 123 24 132 11
5 -6 8 -5 8 3 0 7 4 11 9 7 5 -3 13 0 16 5 5 8 14 5 28 -7 11 -10 18 -13 14
-7 -8 14 50 17 59 3 4 -6 10 -6 19 1 15 12 36 10 47 -5 5 -6 8 -5 8 3 0 7 5
10 11 6 6 -3 30 -8 52 -10 23 -2 54 -9 69 -15 15 -6 31 -8 37 -5 5 4 12 2 16
-4 4 -6 11 -8 16 -5 5 4 9 2 9 -3 0 -8 39 -20 65 -22 3 0 14 -9 25 -20 12 -12
25 -18 30 -15 6 4 10 1 10 -4 0 -6 6 -11 13 -11 6 0 24 -10 39 -23 71 -60 64
-57 82 -36 9 11 13 19 10 19 -3 0 3 13 12 29 17 29 13 68 -6 56 -5 -3 -10 -1
-10 5 0 6 -4 9 -9 6 -5 -3 -12 1 -15 10 -4 9 -13 14 -21 10 -9 -3 -18 1 -21 9
-4 8 -10 12 -15 9 -6 -3 -17 0 -25 7 -13 11 -40 18 -81 21 -7 1 -13 4 -13 8 0
3 -14 7 -32 8 -18 2 -35 6 -38 10 -3 4 -18 8 -35 10 -66 6 -81 8 -90 13 -6 3
-33 5 -62 5 -29 -1 -49 3 -45 8 3 5 -2 7 -11 3 -10 -4 -17 -1 -17 6 0 8 -3 8
-9 -2 -6 -9 -11 -10 -15 -2 -5 7 -13 8 -25 2 -10 -6 -23 -6 -32 0 -17 10 -24
11 -32 3z"/>
<path d="M4900 4360 c0 -3 -43 -4 -96 -2 -85 3 -96 1 -91 -12 4 -9 3 -16 -2
-16 -4 0 -7 -10 -5 -22 1 -13 3 -23 4 -23 0 0 2 -30 3 -68 1 -37 -1 -67 -4
-67 -4 0 -3 -16 1 -35 5 -21 4 -35 -1 -35 -6 0 -5 -9 1 -20 8 -15 8 -20 -2
-20 -8 0 -9 -3 -3 -8 12 -9 13 -122 1 -122 -5 0 -3 -6 3 -14 9 -11 9 -15 -1
-19 -7 -3 -8 -6 -2 -6 7 -1 8 -18 4 -51 -4 -28 -4 -52 -2 -55 8 -8 7 -75 -1
-75 -4 0 -3 -9 3 -20 8 -15 8 -20 -1 -20 -8 0 -8 -4 1 -15 9 -10 9 -15 1 -15
-6 0 -11 -7 -11 -15 0 -9 -10 -15 -26 -15 -17 0 -23 -4 -18 -12 5 -9 3 -9 -9
1 -15 12 -18 10 -26 -10 -7 -18 -10 -20 -10 -6 -1 14 -5 16 -20 8 -10 -6 -21
-8 -24 -4 -11 10 -87 9 -87 -2 0 -5 -5 -2 -11 8 -8 14 -14 16 -25 6 -11 -9
-14 -8 -14 3 0 11 -7 14 -25 10 -14 -2 -22 -8 -19 -13 3 -5 -10 0 -28 10 -18
11 -55 21 -83 22 -27 2 -53 7 -57 13 -5 7 -8 4 -8 -6 0 -10 -5 -18 -11 -18 -5
0 -8 4 -5 9 3 5 -1 12 -10 15 -8 3 -12 2 -9 -4 3 -6 -1 -10 -9 -10 -9 0 -16 6
-16 13 0 8 -4 7 -10 -3 -9 -13 -10 -13 -10 0 0 12 -2 12 -9 2 -6 -11 -10 -10
-15 3 -3 10 -12 15 -21 11 -8 -3 -17 -1 -20 5 -4 5 -11 7 -16 3 -5 -3 -16 0
-24 6 -11 10 -15 10 -15 1 0 -7 -4 -10 -9 -7 -13 8 -42 -4 -35 -15 3 -5 -2 -6
-10 -3 -9 3 -16 2 -16 -3 0 -4 -9 -14 -21 -21 -17 -11 -20 -11 -13 0 6 10 5
11 -7 1 -12 -10 -18 -10 -29 0 -8 7 -11 8 -7 1 4 -7 -4 -13 -23 -16 -16 -3
-32 0 -34 6 -3 7 -5 6 -5 -1 -1 -7 -8 -10 -16 -7 -8 4 -15 1 -15 -6 0 -6 -5
-8 -10 -5 -6 4 -7 12 -3 18 5 9 3 9 -8 1 -20 -15 -51 -26 -45 -15 3 5 -10 11
-29 13 -29 3 -32 2 -22 -12 7 -9 3 -7 -10 4 -12 10 -33 19 -46 20 -14 0 -23 4
-21 8 2 4 0 9 -6 13 -5 3 -10 -2 -10 -12 -1 -17 -1 -17 -11 0 -6 9 -14 15 -19
12 -5 -3 -40 -8 -77 -11 -37 -2 -84 -7 -103 -10 -19 -3 -64 -8 -100 -11 -36
-3 -68 -10 -72 -17 -5 -7 -8 -3 -9 9 0 11 -3 15 -5 9 -3 -7 -14 -9 -26 -6 -16
4 -19 2 -13 -8 6 -10 4 -12 -8 -7 -10 3 -17 3 -17 -2 0 -5 -12 -7 -26 -5 -19
2 -24 -1 -20 -12 5 -12 2 -12 -15 -3 -15 8 -19 8 -15 0 4 -6 2 -11 -3 -11 -10
0 -12 21 -13 182 0 25 3 51 6 57 4 6 3 11 -1 11 -12 0 -10 53 2 62 6 5 5 8 -2
8 -9 0 -10 7 -3 25 5 14 6 25 2 25 -11 0 -9 54 3 62 7 5 6 8 0 8 -7 0 -9 15
-7 35 2 19 0 35 -4 36 -47 5 -64 5 -64 -3 0 -5 -5 -6 -12 -2 -7 5 -8 3 -3 -6
12 -20 12 -459 0 -464 -5 -3 -4 -5 3 -5 6 -1 12 -6 12 -12 0 -5 -4 -7 -10 -4
-5 3 -10 2 -10 -4 0 -6 -7 -8 -15 -5 -8 4 -15 2 -15 -4 0 -12 -33 -10 -42 3
-5 6 -8 6 -8 -2 0 -6 -9 -10 -20 -8 -11 2 -20 0 -20 -4 0 -8 -57 -25 -74 -22
-4 1 -14 -3 -21 -9 -10 -8 -14 -7 -18 2 -4 11 -6 11 -6 0 -1 -10 -6 -10 -23
-1 -20 11 -21 10 -11 -2 10 -12 8 -15 -8 -16 -12 -1 -17 3 -13 10 3 7 0 5 -8
-3 -19 -22 -69 -45 -89 -42 -10 2 -20 -5 -24 -17 -4 -12 -12 -18 -21 -14 -7 3
-14 0 -14 -7 0 -6 -5 -8 -10 -5 -6 4 -17 1 -25 -5 -8 -6 -19 -9 -25 -5 -5 3
-10 -2 -11 -12 0 -11 -3 -13 -6 -5 -4 10 -8 10 -19 1 -11 -9 -14 -8 -14 2 0
12 -2 12 -9 1 -4 -8 -12 -14 -16 -14 -4 0 -12 6 -16 14 -7 10 -9 8 -9 -6 0
-15 -3 -16 -14 -7 -9 8 -16 8 -20 2 -4 -5 -15 -8 -26 -6 -12 2 -18 0 -16 -4 3
-4 -16 -22 -42 -38 -39 -26 -89 -42 -147 -48 -5 0 -9 -6 -8 -13 2 -7 -4 -9
-15 -5 -9 3 -14 3 -10 -2 4 -4 -4 -16 -17 -27 -14 -11 -23 -24 -19 -29 3 -5 2
-9 -3 -8 -20 3 -34 -2 -28 -11 3 -5 -1 -10 -10 -10 -9 0 -25 -9 -37 -20 -12
-11 -28 -20 -35 -20 -8 0 -12 -4 -9 -9 4 -5 -4 -7 -16 -3 -14 3 -19 2 -14 -6
4 -7 1 -12 -6 -12 -8 0 -15 -10 -15 -22 -1 -13 -7 -24 -13 -26 -5 -2 -8 -7 -5
-12 3 -5 -7 -18 -21 -29 -15 -12 -23 -21 -18 -21 5 0 0 -7 -10 -15 -11 -8 -17
-15 -13 -15 4 0 -6 -13 -23 -30 -26 -25 -36 -52 -31 -82 0 -4 -13 -15 -29 -25
-17 -10 -28 -23 -26 -30 3 -7 -1 -13 -9 -13 -8 0 -14 -3 -13 -7 4 -11 -43 -63
-51 -58 -4 2 -8 -8 -9 -21 -1 -14 2 -23 7 -20 4 3 9 -26 10 -63 1 -39 -3 -72
-9 -76 -5 -3 -10 -15 -10 -25 0 -10 -5 -20 -12 -22 -12 -4 -15 -109 -3 -128 4
-6 1 -10 -5 -10 -6 0 -8 -5 -3 -12 4 -7 6 -25 4 -40 -1 -16 2 -28 9 -28 21 0
40 -26 27 -39 -8 -8 -8 -11 1 -11 6 0 9 -7 6 -15 -4 -8 -1 -15 5 -15 6 0 10
-3 10 -7 -3 -21 2 -33 15 -33 8 0 18 -9 21 -20 4 -11 11 -18 16 -15 5 4 9 1 9
-4 0 -6 19 -24 42 -41 22 -16 38 -30 35 -30 -4 0 13 -21 38 -46 25 -25 45 -49
45 -55 0 -5 7 -9 15 -9 8 0 15 -4 15 -10 0 -5 7 -10 15 -10 8 0 15 -4 15 -10
0 -5 9 -10 20 -10 11 0 20 -5 20 -11 0 -5 4 -7 10 -4 5 3 10 2 10 -3 0 -11 58
-34 69 -28 4 3 13 0 21 -6 12 -8 12 -9 -3 -4 -11 4 -16 2 -11 -5 3 -6 15 -9
25 -6 11 3 19 1 19 -5 0 -5 4 -7 9 -4 5 3 12 -1 15 -10 4 -11 14 -15 31 -12
14 3 25 2 25 -1 0 -3 17 -5 37 -5 21 1 46 -3 56 -8 10 -5 43 -10 73 -11 30 -1
54 -5 54 -9 0 -4 9 -5 20 -3 11 2 20 0 20 -6 0 -5 5 -9 11 -9 5 0 7 4 4 10 -8
13 28 0 37 -14 5 -7 8 -6 8 3 0 11 3 11 15 1 8 -7 21 -10 29 -7 8 3 17 0 19
-7 3 -7 16 -12 29 -11 12 2 33 -4 45 -11 12 -8 29 -14 38 -14 8 0 15 -4 15 -9
0 -5 7 -12 16 -15 10 -4 13 -2 8 7 -4 6 6 0 22 -15 20 -19 33 -25 40 -18 7 7
17 4 30 -7 23 -21 40 -27 72 -26 12 1 22 -4 22 -10 0 -6 3 -7 6 -4 4 3 16 2
27 -4 10 -6 17 -7 14 -2 -4 5 0 10 8 10 8 0 14 -3 13 -6 -2 -19 4 -24 12 -11
9 13 11 13 19 0 6 -8 13 -12 16 -8 11 10 64 -13 59 -25 -4 -12 70 -52 94 -50
6 0 12 -3 12 -7 0 -4 7 -11 16 -14 9 -4 13 -2 8 5 -4 7 1 7 15 -1 12 -6 35 -9
51 -6 19 2 30 0 30 -7 0 -8 3 -7 9 2 7 10 9 11 13 0 4 -13 31 -19 88 -19 89
-1 115 2 122 13 6 9 8 9 8 -1 0 -7 4 -11 9 -7 5 3 17 -3 27 -12 10 -10 19 -17
21 -15 2 1 17 2 34 2 21 0 28 -4 23 -12 -5 -8 -1 -8 10 1 15 13 19 13 27 0 7
-11 9 -11 9 3 0 10 10 20 25 24 14 3 25 10 25 15 0 14 28 11 33 -3 4 -10 6 -9
6 1 1 10 6 9 19 -5 18 -20 33 -26 69 -26 14 0 20 -5 16 -12 -4 -7 -1 -6 9 1 8
7 18 10 21 6 4 -3 7 -2 7 4 0 6 8 10 18 9 9 0 16 5 14 12 -1 8 2 11 8 7 5 -3
16 -3 23 2 21 13 39 12 33 -2 -3 -8 -1 -17 5 -20 5 -4 9 -3 8 2 -3 20 2 27 11
13 5 -8 10 -10 10 -4 0 7 10 9 25 6 14 -2 22 -9 19 -16 -3 -6 0 -4 8 4 19 22
42 25 34 4 -5 -13 -4 -14 7 -6 8 7 17 9 20 5 4 -3 7 -2 7 4 0 6 14 9 31 7 22
-3 28 0 23 9 -6 9 -5 9 7 0 12 -10 18 -10 27 -1 9 9 12 9 12 -3 0 -9 8 -5 20
11 l19 25 -4 -24 c-2 -13 -1 -20 3 -17 7 7 8 11 11 37 1 8 6 8 16 -1 8 -7 15
-8 15 -2 0 5 24 9 55 9 30 -1 55 -3 55 -6 0 -4 23 -4 50 -3 32 3 57 -1 67 -10
12 -9 15 -9 9 0 -5 8 0 12 16 12 13 0 30 -6 37 -12 11 -10 13 -10 7 0 -5 8 2
12 24 12 17 0 29 -4 26 -9 -4 -5 2 -8 11 -6 10 2 18 4 18 5 0 1 19 3 43 5 28
2 40 0 35 -7 -4 -7 -1 -8 8 -2 22 13 57 16 64 4 5 -8 11 -8 21 0 7 7 19 10 26
8 7 -3 19 2 26 9 11 10 17 11 28 2 11 -9 14 -8 14 5 0 9 7 16 15 16 8 0 15 5
15 10 0 7 6 7 19 1 15 -9 27 -3 65 34 25 25 50 45 56 45 5 0 10 5 10 10 0 6
16 10 36 10 25 0 33 3 28 13 -6 9 -4 9 7 1 21 -15 121 -17 131 -2 5 9 8 9 8 1
0 -7 11 -10 28 -7 15 3 38 6 52 7 14 1 28 7 32 12 5 7 8 7 8 0 0 -11 62 -11
79 0 6 3 11 2 11 -3 0 -9 54 -7 70 3 10 6 10 65 0 65 -5 0 -11 7 -14 16 -3 8
-2 13 3 9 5 -3 19 7 30 21 12 15 21 21 21 14 0 -7 8 -10 20 -7 11 3 18 2 15
-3 -3 -4 2 -10 10 -13 10 -4 12 -1 8 11 -6 15 -5 16 12 2 14 -12 19 -12 23 -2
3 10 8 8 18 -5 12 -15 13 -15 8 -1 -4 13 -1 15 15 11 11 -3 19 -9 16 -12 -2
-4 3 -8 11 -8 8 0 13 5 11 12 -3 6 3 11 13 11 10 0 16 -4 14 -8 -3 -4 2 -8 11
-8 10 0 13 5 9 13 -6 9 -5 9 7 0 11 -9 19 -9 26 -2 8 8 13 7 18 -2 6 -8 4 -10
-5 -4 -9 5 -11 4 -6 -4 6 -9 11 -9 22 0 8 6 14 8 14 3 0 -5 5 -2 10 6 6 9 10
10 10 3 0 -6 9 -10 20 -8 11 2 20 -1 20 -7 0 -7 4 -7 13 0 8 7 18 7 27 2 8 -5
21 -5 32 1 12 7 18 6 18 -1 0 -6 5 -8 12 -4 15 9 99 10 121 1 9 -3 21 1 27 8
7 8 17 12 23 8 19 -11 47 -11 47 1 0 6 4 5 9 -3 6 -9 11 -10 15 -2 5 7 15 7
31 1 15 -6 25 -6 25 0 0 5 8 9 18 9 24 0 92 24 92 33 0 4 7 5 15 2 8 -4 17 1
21 10 3 9 10 14 14 11 5 -3 15 2 23 10 12 11 17 12 20 2 4 -9 6 -9 6 0 1 7 8
10 18 6 12 -5 14 -3 8 8 -6 11 -5 11 5 2 10 -9 20 -9 43 4 17 8 37 22 45 29 7
8 18 14 23 14 6 0 7 5 3 12 -4 6 -3 8 4 4 6 -3 13 -2 17 4 4 6 11 8 16 5 5 -4
9 -1 9 4 0 6 5 11 12 11 7 0 23 12 35 27 13 14 23 23 23 20 0 -4 15 9 34 28
19 18 36 31 39 29 3 -3 8 4 12 15 3 12 11 21 17 21 5 0 8 7 4 15 -3 8 0 15 6
15 6 0 8 3 5 7 -4 3 -2 13 5 20 9 11 9 17 -3 24 -8 5 -10 9 -5 9 6 0 1 7 -10
16 -10 8 -13 12 -5 9 9 -5 8 1 -4 19 -10 15 -13 26 -6 26 6 0 11 5 11 11 0 5
-5 7 -10 4 -11 -7 -9 23 3 42 5 8 3 11 -5 8 -9 -4 -14 2 -14 14 0 13 4 17 11
11 7 -6 11 -2 11 10 0 10 -4 17 -7 14 -4 -2 -10 0 -14 6 -3 5 0 10 7 10 7 0 5
5 -6 11 -12 7 -14 14 -8 18 8 5 7 15 -3 34 -8 15 -10 25 -5 22 6 -3 7 0 5 7
-3 7 -15 19 -26 26 -12 8 -18 9 -14 3 9 -15 -8 -14 -24 2 -11 10 -12 9 -6 -3
8 -13 7 -13 -8 -1 -9 7 -17 20 -17 28 0 8 -4 11 -10 8 -9 -6 -14 10 -13 42 1
7 -4 10 -11 6 -6 -4 -5 1 3 10 11 14 11 17 0 17 -11 0 -11 2 1 10 8 5 10 10 4
10 -6 0 -11 7 -11 15 0 8 4 15 9 15 4 0 0 8 -9 18 -10 11 -21 17 -25 15 -4 -2
-5 4 -1 13 4 12 3 15 -5 10 -7 -4 -12 -1 -12 7 0 7 -6 14 -12 14 -26 1 -43 8
-59 25 -9 10 -20 14 -24 10 -5 -4 -5 -2 -2 4 8 15 -18 38 -33 29 -5 -3 -10 -1
-10 5 0 6 -7 18 -16 27 -11 12 -14 26 -9 56 5 25 4 37 -3 33 -5 -3 -13 5 -16
19 -4 14 -10 24 -14 24 -21 -3 -32 3 -32 18 0 9 -3 14 -6 10 -4 -3 -12 -1 -19
6 -6 7 -23 21 -38 32 -16 12 -23 23 -17 30 8 10 8 71 -1 78 -2 2 -21 7 -42 10
-27 4 -36 3 -31 -6 5 -8 3 -8 -7 1 -7 6 -17 12 -22 12 -4 0 -5 -6 -1 -12 6
-10 4 -10 -7 0 -7 6 -17 12 -22 12 -4 0 -5 -6 -1 -12 6 -10 4 -10 -7 -2 -8 6
-25 11 -38 12 -13 0 -27 6 -31 13 -6 8 -9 8 -13 -2 -4 -9 -6 -10 -6 -2 -1 7
-8 10 -18 6 -11 -4 -14 -3 -9 5 4 7 1 12 -9 12 -9 0 -14 4 -11 8 3 5 -7 15
-22 23 -31 16 -53 35 -47 41 2 2 -6 5 -18 5 -12 1 -23 7 -25 13 -2 5 -8 10
-14 10 -14 0 -38 26 -31 34 4 3 2 6 -3 6 -6 0 -15 -5 -22 -12 -9 -9 -12 -9
-12 2 0 13 -2 13 -10 0 -6 -9 -10 -11 -10 -3 0 7 -7 10 -17 6 -10 -4 -14 -2
-10 4 5 7 -1 9 -15 5 -12 -3 -19 -1 -15 5 3 5 0 10 -8 10 -8 0 -12 -4 -9 -9 3
-4 -3 -5 -13 -1 -22 8 -59 45 -56 55 2 5 -3 7 -10 5 -6 -1 -11 3 -10 9 1 6 -4
11 -12 11 -8 0 -12 -5 -8 -10 3 -5 -4 -4 -16 2 -14 8 -21 8 -21 1 0 -5 -5 -10
-11 -10 -5 0 -8 4 -5 8 7 11 -31 8 -41 -3 -5 -4 -1 -5 7 0 8 5 12 4 7 0 -10
-12 -38 -15 -31 -4 7 12 -13 11 -36 -1 -15 -8 -21 -6 -29 7 -10 17 -10 16 -11
-2 0 -12 -3 -16 -8 -9 -4 6 -19 10 -34 10 -19 -1 -28 3 -28 14 0 13 -1 13 -10
0 -8 -13 -10 -12 -10 3 0 28 -1 31 -13 46 -9 12 -9 13 0 7 10 -5 12 3 9 34 -3
28 -1 38 7 33 9 -5 9 -3 1 8 -6 8 -10 29 -9 47 1 18 -3 32 -9 32 -8 0 -8 2 0
8 15 9 15 194 0 204 -8 6 -8 8 0 8 7 0 12 22 12 58 1 122 25 214 70 260 6 7
12 18 12 23 0 6 4 8 9 4 6 -3 14 3 20 12 6 10 11 14 11 10 0 -4 10 1 22 13 12
11 30 20 39 20 10 0 20 4 24 9 3 6 14 8 25 6 11 -2 20 2 20 8 0 7 4 6 10 -3 7
-12 10 -12 10 -1 0 7 6 11 15 8 8 -4 17 -2 21 4 4 6 10 7 17 0 14 -11 30 5 35
33 2 13 -1 16 -10 10 -11 -6 -11 -5 0 8 15 19 5 28 -29 27 -13 0 -125 0 -248
1 -123 0 -225 -1 -227 -3 -2 -2 -25 -1 -52 3 -26 3 -58 3 -70 0 -13 -3 -61 -3
-107 0 -47 3 -85 3 -85 0 0 -3 -27 -3 -60 0 -33 3 -60 3 -60 0z m1770 -2484
c0 -2 -7 -7 -16 -10 -8 -3 -12 -2 -9 4 6 10 25 14 25 6z"/>
<path d="M4895 1489 c-4 -6 -5 -12 -2 -15 2 -3 7 2 10 11 7 17 1 20 -8 4z"/>
<path d="M4360 1480 c8 -5 20 -10 25 -10 6 0 3 5 -5 10 -8 5 -19 10 -25 10 -5
0 -3 -5 5 -10z"/>
</g>
</svg>
